<svg width="10" height="6" viewBox="0 0 10 6" fill="none" xmlns="http://www.w3.org/2000/svg">
<path fill-rule="evenodd" clip-rule="evenodd" d="M8.92799 1.9133C9.02551 1.82705 9.1041 1.72351 9.15925 1.60858C9.21441 1.49365 9.24506 1.36958 9.24945 1.24346C9.25384 1.11734 9.23189 0.991638 9.18485 0.873531C9.13781 0.755424 9.06661 0.647225 8.9753 0.555111C8.88399 0.462997 8.77436 0.388773 8.65268 0.336676C8.531 0.284579 8.39965 0.25563 8.26613 0.251481C8.1326 0.247332 7.99952 0.268065 7.87448 0.312496C7.74944 0.356926 7.63488 0.424184 7.53736 0.51043L4.75 2.97218L1.96264 0.50947C1.86512 0.423224 1.75056 0.355965 1.62552 0.311534C1.50048 0.267104 1.3674 0.246371 1.23387 0.25052C1.10035 0.254669 0.968997 0.283618 0.847318 0.335715C0.725638 0.387812 0.616014 0.462036 0.524704 0.55415C0.433393 0.646264 0.362186 0.754463 0.315146 0.87257C0.268107 0.990677 0.246157 1.11638 0.250549 1.2425C0.254942 1.36862 0.285591 1.49269 0.340747 1.60762C0.395903 1.72255 0.474485 1.82609 0.572007 1.91234L4.05519 4.99097C4.24364 5.15741 4.492 5.25 4.75 5.25C5.008 5.25 5.25636 5.15741 5.44481 4.99097L8.92799 1.9133Z" fill="white" fill-opacity="0.5" stroke="#111111" stroke-width="0.5"/>
</svg>
