<svg width="8" height="12" viewBox="0 0 8 12" fill="none" xmlns="http://www.w3.org/2000/svg">
<path fill-rule="evenodd" clip-rule="evenodd" d="M2.57862 10.8564C2.45788 10.9756 2.31291 11.0717 2.15201 11.1391C1.9911 11.2065 1.81741 11.244 1.64084 11.2493C1.46428 11.2547 1.28829 11.2279 1.12294 11.1704C0.957594 11.1129 0.806115 11.0259 0.677156 10.9143C0.548196 10.8026 0.444283 10.6687 0.371347 10.5199C0.298411 10.3712 0.257882 10.2107 0.252073 10.0475C0.246265 9.88429 0.275291 9.72164 0.337494 9.56881C0.399697 9.41598 0.493858 9.27597 0.614603 9.15678L4.06105 5.75L0.613258 2.34322C0.492513 2.22403 0.398351 2.08402 0.336148 1.93119C0.273945 1.77837 0.244919 1.61571 0.250727 1.45251C0.256536 1.28932 0.297065 1.12878 0.370001 0.980056C0.442937 0.831337 0.54685 0.697351 0.67581 0.58575C0.804769 0.474149 0.956248 0.387117 1.1216 0.329625C1.28695 0.272132 1.46293 0.245304 1.6395 0.250673C1.81607 0.256041 1.98976 0.293502 2.15066 0.360914C2.31157 0.428327 2.45653 0.524372 2.57728 0.643565L6.88735 4.90079C7.12037 5.13112 7.25 5.43467 7.25 5.75C7.25 6.06533 7.12037 6.36888 6.88735 6.59921L2.57862 10.8564Z" fill="white" fill-opacity="0.5" stroke="#111111" stroke-width="0.5"/>
</svg>
