<svg width="8" height="12" viewBox="0 0 8 12" fill="none" xmlns="http://www.w3.org/2000/svg">
<path fill-rule="evenodd" clip-rule="evenodd" d="M4.92138 10.8564C5.04212 10.9756 5.18709 11.0717 5.34799 11.1391C5.5089 11.2065 5.68259 11.244 5.85916 11.2493C6.03572 11.2547 6.21171 11.2279 6.37706 11.1704C6.54241 11.1129 6.69389 11.0259 6.82284 10.9143C6.9518 10.8026 7.05572 10.6687 7.12865 10.5199C7.20159 10.3712 7.24212 10.2107 7.24793 10.0475C7.25374 9.88429 7.22471 9.72164 7.16251 9.56881C7.1003 9.41598 7.00614 9.27597 6.8854 9.15678L3.43895 5.75L6.88674 2.34322C7.00749 2.22403 7.10165 2.08402 7.16385 1.93119C7.22606 1.77837 7.25508 1.61571 7.24927 1.45251C7.24346 1.28932 7.20293 1.12878 7.13 0.980056C7.05706 0.831337 6.95315 0.697351 6.82419 0.58575C6.69523 0.474149 6.54375 0.387117 6.3784 0.329625C6.21305 0.272132 6.03707 0.245304 5.8605 0.250673C5.68393 0.256041 5.51024 0.293502 5.34934 0.360914C5.18843 0.428327 5.04347 0.524372 4.92272 0.643565L0.612646 4.90079C0.37963 5.13112 0.25 5.43467 0.25 5.75C0.25 6.06533 0.37963 6.36888 0.612646 6.59921L4.92138 10.8564Z" fill="white" fill-opacity="0.75" stroke="#111111" stroke-width="0.5"/>
</svg>
