<svg width="14" height="14" viewBox="0 0 14 14" fill="none" xmlns="http://www.w3.org/2000/svg">
<g clip-path="url(#clip0_46_149)">
<path fill-rule="evenodd" clip-rule="evenodd" d="M7.00002 2.73098C7.19893 2.73098 7.38969 2.81 7.53035 2.95065C7.671 3.0913 7.75002 3.28207 7.75002 3.48098V10.519C7.75002 10.7179 7.671 10.9087 7.53035 11.0493C7.38969 11.19 7.19893 11.269 7.00002 11.269C6.8011 11.269 6.61034 11.19 6.46969 11.0493C6.32903 10.9087 6.25002 10.7179 6.25002 10.519V3.47998C6.25002 3.28107 6.32903 3.0903 6.46969 2.94965C6.61034 2.809 6.8011 2.73098 7.00002 2.73098ZM4.05402 4.66498C4.25293 4.66498 4.44369 4.744 4.58435 4.88465C4.725 5.0253 4.80402 5.21607 4.80402 5.41498V8.58498C4.80402 8.78389 4.725 8.97466 4.58435 9.11531C4.44369 9.25596 4.25293 9.33498 4.05402 9.33498C3.8551 9.33498 3.66434 9.25596 3.52369 9.11531C3.38303 8.97466 3.30402 8.78389 3.30402 8.58498V5.41498C3.30402 5.21607 3.38303 5.0253 3.52369 4.88465C3.66434 4.744 3.8551 4.66498 4.05402 4.66498ZM10.696 5.41498C10.696 5.21607 10.617 5.0253 10.4763 4.88465C10.3357 4.744 10.1449 4.66498 9.94602 4.66498C9.7471 4.66498 9.55634 4.744 9.41569 4.88465C9.27503 5.0253 9.19602 5.21607 9.19602 5.41498V8.58498C9.19602 8.78389 9.27503 8.97466 9.41569 9.11531C9.55634 9.25596 9.7471 9.33498 9.94602 9.33498C10.1449 9.33498 10.3357 9.25596 10.4763 9.11531C10.617 8.97466 10.696 8.78389 10.696 8.58498V5.41498Z" fill="white" fill-opacity="0.25"/>
<path fill-rule="evenodd" clip-rule="evenodd" d="M4.73901 0.861989C4.71762 0.664289 4.61859 0.483176 4.46369 0.358473C4.3088 0.23377 4.11072 0.175685 3.91301 0.196989C3.56301 0.233989 3.21601 0.274989 2.87601 0.313989L2.80501 0.321989C2.16886 0.396499 1.57656 0.683783 1.1242 1.13723C0.671849 1.59067 0.38599 2.18366 0.31301 2.81999C0.27301 3.18099 0.23101 3.54999 0.19301 3.92199C0.181859 4.02048 0.19034 4.1202 0.217963 4.21538C0.245585 4.31057 0.291801 4.39934 0.353939 4.47656C0.416077 4.55378 0.492905 4.61792 0.579981 4.66526C0.667056 4.71261 0.762653 4.74223 0.861245 4.7524C0.959837 4.76258 1.05947 4.75311 1.15438 4.72455C1.24929 4.69599 1.3376 4.6489 1.4142 4.586C1.4908 4.5231 1.55417 4.44564 1.60066 4.3581C1.64714 4.27056 1.67581 4.17468 1.68501 4.07599C1.72201 3.71099 1.76301 3.34899 1.80301 2.98699C1.83822 2.68771 1.9732 2.40902 2.18619 2.19584C2.39918 1.98267 2.67776 1.84745 2.97701 1.81199L3.04701 1.80399C3.38901 1.76399 3.73001 1.72499 4.07301 1.68799C4.17108 1.67764 4.26614 1.64805 4.35276 1.60092C4.43938 1.55379 4.51586 1.49004 4.57781 1.41332C4.63977 1.3366 4.68598 1.24841 4.71381 1.15381C4.74165 1.0592 4.74955 0.960038 4.73901 0.861989ZM10.087 0.196989C9.98785 0.183913 9.88707 0.190802 9.79062 0.217253C9.69416 0.243703 9.60396 0.28918 9.52534 0.351008C9.44672 0.412835 9.38126 0.489764 9.33281 0.577267C9.28436 0.66477 9.25391 0.76108 9.24324 0.860528C9.23256 0.959977 9.24189 1.06056 9.27067 1.15635C9.29945 1.25214 9.3471 1.3412 9.41081 1.4183C9.47452 1.49541 9.55301 1.55898 9.64166 1.6053C9.73031 1.65161 9.82733 1.67973 9.92701 1.68799C10.27 1.72499 10.611 1.76499 10.953 1.80399L11.023 1.81199C11.3223 1.84745 11.6008 1.98267 11.8138 2.19584C12.0268 2.40902 12.1618 2.68771 12.197 2.98699C12.237 3.34899 12.277 3.71099 12.315 4.07599C12.3372 4.27236 12.4361 4.45202 12.5901 4.57592C12.744 4.69982 12.9407 4.75794 13.1373 4.73765C13.3338 4.71736 13.5145 4.6203 13.6399 4.46756C13.7653 4.31483 13.8254 4.11876 13.807 3.92199C13.769 3.54899 13.727 3.18099 13.687 2.81999C13.614 2.18366 13.3282 1.59067 12.8758 1.13723C12.4235 0.683783 11.8312 0.396499 11.195 0.321989L11.125 0.313989C10.784 0.273989 10.437 0.233989 10.087 0.196989ZM10.087 13.803C9.98785 13.8161 9.88707 13.8092 9.79062 13.7827C9.69416 13.7563 9.60396 13.7108 9.52534 13.649C9.44672 13.5871 9.38126 13.5102 9.33281 13.4227C9.28436 13.3352 9.25391 13.2389 9.24324 13.1395C9.23256 13.04 9.24189 12.9394 9.27067 12.8436C9.29945 12.7478 9.3471 12.6588 9.41081 12.5817C9.47452 12.5046 9.55301 12.441 9.64166 12.3947C9.73031 12.3484 9.82733 12.3203 9.92701 12.312C10.27 12.275 10.611 12.235 10.952 12.196L11.022 12.188C11.3214 12.1527 11.6002 12.0176 11.8134 11.8044C12.0266 11.5912 12.1618 11.3124 12.197 11.013C12.237 10.651 12.277 10.289 12.315 9.92399C12.3372 9.72762 12.4361 9.54795 12.5901 9.42406C12.744 9.30016 12.9407 9.24204 13.1373 9.26233C13.3338 9.28262 13.5145 9.37968 13.6399 9.53242C13.7653 9.68515 13.8254 9.88122 13.807 10.078C13.769 10.451 13.727 10.819 13.687 11.18C13.614 11.8163 13.3282 12.4093 12.8758 12.8628C12.4235 13.3162 11.8312 13.6035 11.195 13.678L11.125 13.686C10.784 13.726 10.437 13.766 10.087 13.803ZM3.91301 13.803C4.01217 13.8161 4.11295 13.8092 4.20941 13.7827C4.30586 13.7563 4.39606 13.7108 4.47468 13.649C4.5533 13.5871 4.61876 13.5102 4.66721 13.4227C4.71566 13.3352 4.74611 13.2389 4.75678 13.1395C4.76746 13.04 4.75813 12.9394 4.72935 12.8436C4.70057 12.7478 4.65292 12.6588 4.58921 12.5817C4.5255 12.5046 4.44701 12.441 4.35836 12.3947C4.26971 12.3484 4.17269 12.3203 4.07301 12.312C3.73001 12.275 3.38901 12.235 3.04701 12.196L2.97701 12.188C2.67776 12.1525 2.39918 12.0173 2.18619 11.8041C1.9732 11.591 1.83822 11.3123 1.80301 11.013C1.76301 10.651 1.72301 10.289 1.68501 9.92399C1.6749 9.82596 1.64558 9.73088 1.59872 9.64418C1.55186 9.55748 1.48839 9.48086 1.41192 9.41869C1.33545 9.35652 1.24748 9.31002 1.15304 9.28185C1.05861 9.25367 0.959542 9.24438 0.86151 9.25449C0.763478 9.2646 0.668398 9.29392 0.581698 9.34078C0.494998 9.38764 0.418376 9.45111 0.356208 9.52758C0.294039 9.60405 0.24754 9.69202 0.219367 9.78646C0.191194 9.88089 0.181898 9.97996 0.19201 10.078C0.23101 10.451 0.27201 10.819 0.31201 11.18C0.385034 11.8165 0.671038 12.4096 1.12359 12.863C1.57615 13.3165 2.16868 13.6037 2.80501 13.678L2.87501 13.686C3.21601 13.726 3.56301 13.766 3.91301 13.803Z" fill="white" fill-opacity="0.5"/>
</g>
<defs>
<clipPath id="clip0_46_149">
<rect width="14" height="14" fill="white"/>
</clipPath>
</defs>
</svg>
