<svg width="24" height="24" viewBox="0 0 24 24" fill="none" xmlns="http://www.w3.org/2000/svg">
<rect width="24" height="24" rx="5" fill="url(#paint0_linear_27_112)"/>
<g clip-path="url(#clip0_27_112)">
<path fill-rule="evenodd" clip-rule="evenodd" d="M14 5.49999C14.0002 5.40097 13.9709 5.30413 13.916 5.22174C13.8611 5.13935 13.7829 5.07513 13.6915 5.03721C13.6 4.99929 13.4993 4.98939 13.4022 5.00876C13.3051 5.02812 13.2159 5.07589 13.146 5.14599L11.146 7.14599C11.0994 7.19244 11.0625 7.24762 11.0373 7.30836C11.0121 7.36911 10.9991 7.43423 10.9991 7.49999C10.9991 7.56576 11.0121 7.63088 11.0373 7.69163C11.0625 7.75237 11.0994 7.80755 11.146 7.85399L13.146 9.85399C13.2159 9.9241 13.3051 9.97187 13.4022 9.99123C13.4993 10.0106 13.6 10.0007 13.6915 9.96278C13.7829 9.92486 13.8611 9.86064 13.916 9.77825C13.9709 9.69586 14.0002 9.59902 14 9.49999V8.24999H14.75C15.44 8.24999 16 8.80999 16 9.49999V15.5C16 15.6989 16.079 15.8897 16.2197 16.0303C16.3603 16.171 16.5511 16.25 16.75 16.25C16.9489 16.25 17.1397 16.171 17.2803 16.0303C17.421 15.8897 17.5 15.6989 17.5 15.5V9.49999C17.5 9.13886 17.4289 8.78126 17.2907 8.44762C17.1525 8.11397 16.9499 7.81081 16.6945 7.55545C16.4392 7.30009 16.136 7.09753 15.8024 6.95933C15.4687 6.82113 15.1111 6.74999 14.75 6.74999H14V5.49999ZM7.25 7.74999C7.44891 7.74999 7.63968 7.82901 7.78033 7.96966C7.92098 8.11032 8 8.30108 8 8.49999V15.5C8 15.6989 7.92098 15.8897 7.78033 16.0303C7.63968 16.171 7.44891 16.25 7.25 16.25C7.05109 16.25 6.86032 16.171 6.71967 16.0303C6.57902 15.8897 6.5 15.6989 6.5 15.5V8.49999C6.5 8.30108 6.57902 8.11032 6.71967 7.96966C6.86032 7.82901 7.05109 7.74999 7.25 7.74999Z" fill="#0D0D0D"/>
<path fill-rule="evenodd" clip-rule="evenodd" d="M6.5 5C6.10218 5 5.72064 5.15804 5.43934 5.43934C5.15804 5.72064 5 6.10218 5 6.5V8C5 8.39782 5.15804 8.77936 5.43934 9.06066C5.72064 9.34196 6.10218 9.5 6.5 9.5H8C8.39782 9.5 8.77936 9.34196 9.06066 9.06066C9.34196 8.77936 9.5 8.39782 9.5 8V6.5C9.5 6.10218 9.34196 5.72064 9.06066 5.43934C8.77936 5.15804 8.39782 5 8 5H6.5ZM6.5 14.5C6.10218 14.5 5.72064 14.658 5.43934 14.9393C5.15804 15.2206 5 15.6022 5 16V17.5C5 17.8978 5.15804 18.2794 5.43934 18.5607C5.72064 18.842 6.10218 19 6.5 19H8C8.39782 19 8.77936 18.842 9.06066 18.5607C9.34196 18.2794 9.5 17.8978 9.5 17.5V16C9.5 15.6022 9.34196 15.2206 9.06066 14.9393C8.77936 14.658 8.39782 14.5 8 14.5H6.5ZM14.5 16C14.5 15.6022 14.658 15.2206 14.9393 14.9393C15.2206 14.658 15.6022 14.5 16 14.5H17.5C17.8978 14.5 18.2794 14.658 18.5607 14.9393C18.842 15.2206 19 15.6022 19 16V17.5C19 17.8978 18.842 18.2794 18.5607 18.5607C18.2794 18.842 17.8978 19 17.5 19H16C15.6022 19 15.2206 18.842 14.9393 18.5607C14.658 18.2794 14.5 17.8978 14.5 17.5V16Z" fill="#0D0D0D"/>
</g>
<defs>
<linearGradient id="paint0_linear_27_112" x1="12" y1="0" x2="12" y2="24" gradientUnits="userSpaceOnUse">
<stop stop-color="#7E7E7E"/>
<stop offset="1" stop-color="#343434"/>
</linearGradient>
<clipPath id="clip0_27_112">
<rect width="14" height="14" fill="white" transform="translate(5 5)"/>
</clipPath>
</defs>
</svg>
