<svg width="18" height="18" viewBox="0 0 18 18" fill="none" xmlns="http://www.w3.org/2000/svg">
<path d="M14.5 7.41176C16.433 7.41176 18 5.75258 18 3.70588C18 1.65919 16.433 0 14.5 0C12.5669 0 11 1.65919 11 3.70588C11 5.75258 12.5669 7.41176 14.5 7.41176Z" fill="#545454"/>
<path d="M5.625 18C2.5184 18 0 15.6297 0 12.7059C0 9.78203 2.5184 7.41177 5.625 7.41177C7.87056 7.41177 9.80877 8.6502 10.7107 10.441C11.4775 9.87016 12.4464 9.52941 13.5 9.52941C15.9852 9.52941 18 11.4256 18 13.7647C18 16.1038 15.9852 18 13.5 18H5.625Z" fill="#545454"/>
</svg>
