<svg width="16" height="11" viewBox="0 0 16 11" fill="none" xmlns="http://www.w3.org/2000/svg">
<path fill-rule="evenodd" clip-rule="evenodd" d="M0.146461 5.64645C-0.0488008 5.45118 -0.048801 5.1346 0.146461 4.93934L4.93935 0.146446C5.13462 -0.0488161 5.4512 -0.0488163 5.64646 0.146446L7.79291 2.29289L5.14646 4.93934C4.9512 5.1346 4.9512 5.45118 5.14646 5.64645L7.79291 8.29289L5.64646 10.4393C5.4512 10.6346 5.13462 10.6346 4.93935 10.4393L0.146461 5.64645ZM7.79291 8.29289L10.4394 5.64645C10.6346 5.45118 10.6346 5.1346 10.4394 4.93934L7.79291 2.29289L9.93935 0.146445C10.1346 -0.0488167 10.4512 -0.0488163 10.6465 0.146446L15.4394 4.93934C15.6346 5.1346 15.6346 5.45118 15.4394 5.64645L10.6465 10.4393C10.4512 10.6346 10.1346 10.6346 9.93935 10.4393L7.79291 8.29289Z" fill="url(#paint0_linear_27_22)"/>
<defs>
<linearGradient id="paint0_linear_27_22" x1="7.79291" y1="10.7929" x2="7.79291" y2="-0.207108" gradientUnits="userSpaceOnUse">
<stop stop-color="white"/>
<stop offset="1" stop-color="#CAF7FF"/>
</linearGradient>
</defs>
</svg>
