<svg width="14" height="14" viewBox="0 0 14 14" fill="none" xmlns="http://www.w3.org/2000/svg">
<g clip-path="url(#clip0_46_161)">
<path d="M7 0.25C5.852 0.25 4.731 0.355 3.657 0.475C2.84083 0.568948 2.08062 0.936831 1.50051 1.51858C0.920393 2.10033 0.554651 2.86157 0.463 3.678C0.348 4.747 0.25 5.86 0.25 7C0.25 8.14 0.348 9.253 0.463 10.322C0.554651 11.1384 0.920393 11.8997 1.50051 12.4814C2.08062 13.0632 2.84083 13.4311 3.657 13.525C4.731 13.645 5.852 13.75 7 13.75C8.148 13.75 9.269 13.645 10.343 13.525C11.1592 13.4311 11.9194 13.0632 12.4995 12.4814C13.0796 11.8997 13.4453 11.1384 13.537 10.322C13.652 9.253 13.75 8.14 13.75 7C13.75 5.86 13.652 4.747 13.537 3.678C13.4453 2.86157 13.0796 2.10033 12.4995 1.51858C11.9194 0.936831 11.1592 0.568948 10.343 0.475C9.269 0.355 8.148 0.25 7 0.25Z" fill="white" fill-opacity="0.5"/>
<path d="M4.42603 7.00001C4.42603 7.65501 4.55003 8.61301 4.66103 9.34401C4.67917 9.47723 4.72626 9.60487 4.79899 9.71795C4.87171 9.83103 4.96832 9.92681 5.08202 9.99858C5.19571 10.0703 5.32374 10.1163 5.45711 10.1333C5.59048 10.1503 5.72596 10.1379 5.85403 10.097C7.44003 9.58001 8.92803 8.76601 9.93203 7.51701C10.05 7.37055 10.1144 7.18811 10.1144 7.00001C10.1144 6.81191 10.05 6.62948 9.93203 6.48301C8.92803 5.23401 7.44003 4.42001 5.85403 3.90301C5.72602 3.86225 5.59065 3.84998 5.4574 3.86707C5.32415 3.88416 5.19626 3.93019 5.08268 4.00194C4.9691 4.07369 4.8726 4.16941 4.79993 4.2824C4.72727 4.39539 4.6802 4.52291 4.66203 4.65601C4.55003 5.38601 4.42603 6.34501 4.42603 7.00001Z" fill="#5B5B5B"/>
</g>
<defs>
<clipPath id="clip0_46_161">
<rect width="14" height="14" fill="white"/>
</clipPath>
</defs>
</svg>
