<svg width="14" height="13" viewBox="0 0 14 13" fill="none" xmlns="http://www.w3.org/2000/svg">
<path d="M6.127 0.305451C5.85603 0.0996605 5.52315 -0.00789126 5.183 0.000451217H1.5C1.10218 0.000451217 0.720644 0.158486 0.43934 0.439791C0.158035 0.721096 0 1.10263 0 1.50045L0 11.5005C0 11.8983 0.158035 12.2798 0.43934 12.5611C0.720644 12.8424 1.10218 13.0005 1.5 13.0005H12.5C12.8978 13.0005 13.2794 12.8424 13.5607 12.5611C13.842 12.2798 14 11.8983 14 11.5005V3.50045C14 3.10263 13.842 2.7211 13.5607 2.43979C13.2794 2.15849 12.8978 2.00045 12.5 2.00045H6.89L6.675 1.14045C6.59293 0.807756 6.39957 0.513125 6.127 0.305451Z" fill="white" fill-opacity="0.5"/>
</svg>
