<svg id="Layer_1" data-name="Layer 1" xmlns="http://www.w3.org/2000/svg" viewBox="0 0 679.78 1044.87"><defs><style>.cls-1{fill:#fff;}</style></defs><path class="cls-1" d="M450.56,634.09s105.67-38.8,172.23-85.19c12.3,0,19,8.52,13.4,21.77-3.89,9.47-16.49,19.88-38.41,34.07-40.61,26.51-107.22,59.64-168.85,87.08l-4.29,11.36c-83.17,219.59-196.92,341.69-337,341.69-64.37,0-97.44-40.69-85.08-99.38,11.76-55.84,55.66-107,110.41-146.71,55.9-40.71,111.1-69.09,195.75-107L445.46,330.26a341.43,341.43,0,0,0,14.65-46.5c5.71-25.07,27.7-43.29,53.41-43.42h1.05c72.88,0,75.62,27.45,50.3,93.71ZM285.75,751.46c-69.25,32.18-117.63,59.62-151.81,87.07-44.49,36-70.2,68.15-77.18,101.28C51.58,964.41,62,982.4,91.33,982.4,158.54,982.4,226.4,902.9,285.75,751.46Z"/><path class="cls-1" d="M679.62,68.62S683.08,38,657.18,24.84C619.11,5.51,589,62.08,589,62.08s7.58-33.63-15.4-51.41-43.17-8-43.17-8-31.56,14.69-28.13,60.68c1.81,24.29,31.53,76.92,48.51,110.75,38.89-40.34,63-40.17,84.87-51.76C676.4,100.8,679.62,68.62,679.62,68.62Z"/></svg>