<svg width="24" height="24" viewBox="0 0 24 24" fill="none" xmlns="http://www.w3.org/2000/svg">
<rect width="24" height="24" rx="5" fill="url(#paint0_linear_27_105)"/>
<path d="M11.155 18.5C8.035 18.5 5.5 15.965 5.5 12.845C5.5 9.725 8.035 7.125 11.285 7.19C14.34 7.255 16.81 9.725 16.81 12.845C16.81 15.965 14.275 18.5 11.155 18.5ZM13.495 8.815C12.585 8.815 11.805 9.595 11.805 10.505C11.805 11.415 12.52 12.195 13.495 12.195C14.405 12.195 15.185 11.48 15.185 10.505C15.185 9.595 14.47 8.815 13.495 8.815ZM16.81 8.815C15.9 8.815 15.12 8.1 15.185 7.125C15.185 6.215 15.9 5.5 16.875 5.5C17.785 5.5 18.5 6.28 18.5 7.19C18.5 8.1 17.72 8.815 16.81 8.815Z" fill="#0D0D0D"/>
<defs>
<linearGradient id="paint0_linear_27_105" x1="12" y1="0" x2="12" y2="24" gradientUnits="userSpaceOnUse">
<stop stop-color="#01B8BA"/>
<stop offset="1" stop-color="#2CB0CD"/>
</linearGradient>
</defs>
</svg>
