<svg width="14" height="14" viewBox="0 0 14 14" fill="none" xmlns="http://www.w3.org/2000/svg">
<path d="M6.75 0C10.4779 0 13.5 3.02208 13.5 6.75C13.5 10.4779 10.4779 13.5 6.75 13.5C3.02208 13.5 0 10.4779 0 6.75C0 3.02208 3.02208 0 6.75 0ZM5.25 3.625C4.63013 3.625 3.56845 4.09503 3.49316 5.36133C3.46705 5.79947 3.32642 6.01306 3.19434 6.0791L2.9707 6.19141C2.75896 6.29728 2.625 6.51327 2.625 6.75C2.625 6.98673 2.75896 7.20272 2.9707 7.30859L3.19434 7.4209C3.32642 7.48694 3.46705 7.70053 3.49316 8.13867C3.56845 9.40497 4.63013 9.875 5.25 9.875C5.59518 9.875 5.875 9.59518 5.875 9.25C5.875 8.90482 5.59518 8.625 5.25 8.625C5.19366 8.625 5.06096 8.59478 4.94531 8.50293C4.84967 8.42692 4.75432 8.30139 4.74023 8.06445C4.71715 7.67719 4.61483 7.15753 4.29785 6.75C4.61483 6.34247 4.71715 5.82281 4.74023 5.43555C4.75432 5.19861 4.84967 5.07308 4.94531 4.99707C5.06096 4.90522 5.19366 4.875 5.25 4.875C5.59518 4.875 5.875 4.59518 5.875 4.25C5.875 3.90482 5.59518 3.625 5.25 3.625ZM8.25 3.625C7.90482 3.625 7.625 3.90482 7.625 4.25C7.625 4.59518 7.90482 4.875 8.25 4.875C8.30634 4.875 8.43904 4.90522 8.55469 4.99707C8.65033 5.07308 8.74568 5.19861 8.75977 5.43555C8.78285 5.82281 8.88517 6.34247 9.20215 6.75C8.88517 7.15753 8.78285 7.67719 8.75977 8.06445C8.74568 8.30139 8.65033 8.42692 8.55469 8.50293C8.43904 8.59478 8.30634 8.625 8.25 8.625C7.90482 8.625 7.625 8.90482 7.625 9.25C7.625 9.59518 7.90482 9.875 8.25 9.875C8.86987 9.875 9.93154 9.40497 10.0068 8.13867C10.0329 7.70053 10.1736 7.48694 10.3057 7.4209L10.5293 7.30859C10.741 7.20272 10.875 6.98673 10.875 6.75C10.875 6.51327 10.741 6.29728 10.5293 6.19141L10.3057 6.0791C10.1736 6.01306 10.0329 5.79947 10.0068 5.36133C9.93154 4.09503 8.86987 3.625 8.25 3.625Z" fill="white" fill-opacity="0.5"/>
</svg>
