<svg width="13" height="13" viewBox="0 0 13 13" fill="none" xmlns="http://www.w3.org/2000/svg">
<path d="M1 3.75V2.375C1 2.01033 1.14487 1.66059 1.40273 1.40273C1.66059 1.14487 2.01033 1 2.375 1H3.75M9.25 1H10.625C10.9897 1 11.3394 1.14487 11.5973 1.40273C11.8551 1.66059 12 2.01033 12 2.375V3.75M12 9.25V10.625C12 10.9897 11.8551 11.3394 11.5973 11.5973C11.3394 11.8551 10.9897 12 10.625 12H9.25M3.75 12H2.375C2.01033 12 1.66059 11.8551 1.40273 11.5973C1.14487 11.3394 1 10.9897 1 10.625V9.25" stroke="#8A8A8A" stroke-width="2" stroke-linecap="round" stroke-linejoin="round"/>
</svg>
