<svg width="13" height="14" viewBox="0 0 13 14" fill="none" xmlns="http://www.w3.org/2000/svg">
<path fill-rule="evenodd" clip-rule="evenodd" d="M3.9519 0.0793095C5.64827 -0.0264365 7.34967 -0.0264365 9.04604 0.0793095C9.6381 0.116309 10.1958 0.367952 10.6129 0.786341C11.0301 1.20473 11.2776 1.76066 11.3083 2.34831C11.3486 3.08231 11.3749 3.80531 11.3849 4.52631L7.06605 7.68931C6.89753 7.80848 6.69569 7.87245 6.48873 7.87227C6.28177 7.87209 6.08003 7.80777 5.91173 7.68831L1.61401 4.51831C1.6241 3.80131 1.6493 3.08031 1.68962 2.34831C1.72034 1.76082 1.96769 1.20502 2.38464 0.786658C2.80158 0.368291 3.36002 0.116545 3.9519 0.0793095Z" fill="#5B5B5B"/>
<path d="M0.49399 5.2493L5.16068 8.6893C5.93796 9.2633 7.03583 9.2643 7.81512 8.6943L12.51 5.2563C12.6522 5.4543 12.752 5.6803 12.7953 5.9273C12.9345 6.7253 13 7.5493 13 8.6893C13 9.8293 12.9345 10.6533 12.7953 11.4513C12.6562 12.2413 11.9435 12.8223 11.0896 12.9133C9.61264 13.0703 8.07825 13.1883 6.5005 13.1883C4.92276 13.1883 3.38837 13.0703 1.91043 12.9133C1.05754 12.8233 0.344785 12.2413 0.205661 11.4513C0.0645211 10.6543 0 9.8293 0 8.6893C0 7.5493 0.0645211 6.7253 0.204653 5.9273C0.247854 5.68272 0.346818 5.45016 0.49399 5.2493Z" fill="white" fill-opacity="0.5"/>
<path fill-rule="evenodd" clip-rule="evenodd" d="M4.41663 4.8493C4.41663 4.5043 4.69891 4.2243 5.04672 4.2243H7.95017C8.11728 4.2243 8.27754 4.29015 8.39571 4.40736C8.51387 4.52457 8.58026 4.68354 8.58026 4.8493C8.58026 5.01506 8.51387 5.17404 8.39571 5.29125C8.27754 5.40846 8.11728 5.4743 7.95017 5.4743H5.04672C4.87961 5.4743 4.71934 5.40846 4.60117 5.29125C4.48301 5.17404 4.41663 5.01506 4.41663 4.8493Z" fill="#919191"/>
<path fill-rule="evenodd" clip-rule="evenodd" d="M4.41663 2.2323C4.41663 1.8873 4.69891 1.6073 5.04672 1.6073H7.95017C8.11728 1.6073 8.27754 1.67315 8.39571 1.79036C8.51387 1.90757 8.58026 2.06654 8.58026 2.2323C8.58026 2.39806 8.51387 2.55703 8.39571 2.67424C8.27754 2.79145 8.11728 2.8573 7.95017 2.8573H5.04672C4.87961 2.8573 4.71934 2.79145 4.60117 2.67424C4.48301 2.55703 4.41663 2.39806 4.41663 2.2323Z" fill="#919191"/>
</svg>
