<svg width="13" height="13" viewBox="0 0 13 13" fill="none" xmlns="http://www.w3.org/2000/svg">
<path fill-rule="evenodd" clip-rule="evenodd" d="M1.44874 7.4021C1.06451 7.4021 0.696016 7.55473 0.424325 7.82643C0.152634 8.09812 0 8.46661 0 8.85084V10.2117C6.35696e-05 10.7856 0.204522 11.3406 0.576724 11.7775C0.948927 12.2143 1.46454 12.5042 2.03113 12.5953L2.5971 12.6861C5.18262 13.1014 7.81739 13.1014 10.4029 12.6861L10.9679 12.5953C11.5347 12.5044 12.0505 12.2145 12.4229 11.7777C12.7953 11.3409 12.9999 10.7857 13 10.2117V8.85084C13 8.46661 12.8474 8.09812 12.5757 7.82643C12.304 7.55473 11.9355 7.4021 11.5513 7.4021H9.39747C8.57749 7.4021 8.03566 8.07818 7.77682 8.60359C7.59138 8.98026 7.23596 9.33375 6.5 9.33375C5.76308 9.33375 5.40862 8.98026 5.22318 8.60359C4.9653 8.07721 4.42155 7.4021 3.60253 7.4021H1.44874Z" fill="white" fill-opacity="0.5"/>
<path fill-rule="evenodd" clip-rule="evenodd" d="M4.20317 3.69235C4.30193 3.61956 4.41764 3.57319 4.53933 3.55764C4.66103 3.54209 4.78468 3.55787 4.89857 3.60349C5.09753 3.68172 5.36216 3.77251 5.65481 3.84108V0.845097C5.65481 0.620963 5.74384 0.406009 5.90233 0.247523C6.06082 0.0890367 6.27577 0 6.4999 0C6.72404 0 6.93899 0.0890367 7.09748 0.247523C7.25596 0.406009 7.345 0.620963 7.345 0.845097V3.84108C7.60263 3.77961 7.85564 3.70022 8.10221 3.60349C8.21597 3.55805 8.33943 3.54236 8.46094 3.55791C8.58245 3.57346 8.69798 3.61973 8.79664 3.69235C9.01201 3.85461 9.12502 4.14435 9.02071 4.44086C8.85652 4.90832 8.50302 5.35646 8.09062 5.71092C7.67531 6.06828 7.15666 6.36768 6.61677 6.5029C6.54003 6.52204 6.45977 6.52204 6.38304 6.5029C5.84218 6.36768 5.3245 6.06828 4.90822 5.71092C4.49582 5.35646 4.14329 4.90832 3.9791 4.44086C3.9309 4.3086 3.92667 4.16431 3.96704 4.02946C4.00741 3.8946 4.09023 3.77637 4.20317 3.69235Z" fill="#5B5B5B"/>
</svg>
