<svg width="12" height="12" viewBox="0 0 12 12" fill="none" xmlns="http://www.w3.org/2000/svg">
<path d="M5.19928 0.300003C7.9051 0.300003 10.0986 2.49349 10.0986 5.1993C10.0986 6.35607 9.69678 7.41846 9.02633 8.25656L10.9151 10.1454C11.1277 10.358 11.1277 10.7026 10.9151 10.9151C10.7026 11.1277 10.3579 11.1277 10.1454 10.9151L8.25655 9.02635C7.41844 9.69679 6.35606 10.0986 5.19928 10.0986C2.49348 10.0986 0.299988 7.90512 0.299988 5.1993C0.299988 2.49349 2.49348 0.300003 5.19928 0.300003ZM5.19928 1.38873C3.09477 1.38873 1.38872 3.09478 1.38872 5.1993C1.38872 7.30381 3.09477 9.00986 5.19928 9.00986C7.3038 9.00986 9.00984 7.30381 9.00984 5.1993C9.00984 3.09478 7.3038 1.38873 5.19928 1.38873Z" fill="white" fill-opacity="0.5"/>
<path d="M5.1994 0.149612C7.98801 0.149678 10.2482 2.41081 10.2482 5.19942C10.2482 6.34327 9.86598 7.39692 9.22479 8.24336L11.0217 10.0393C11.2926 10.3104 11.2927 10.7506 11.0217 11.0217C10.7506 11.2928 10.3104 11.2926 10.0392 11.0217L8.24335 9.22481C7.39691 9.866 6.34325 10.2482 5.1994 10.2482C2.4108 10.2482 0.149663 7.98803 0.149597 5.19942C0.149597 2.41077 2.41076 0.149612 5.1994 0.149612ZM5.1994 1.53828C3.17773 1.53828 1.53827 3.17775 1.53827 5.19942C1.53834 7.22104 3.17777 8.85957 5.1994 8.85957C7.22098 8.85951 8.85949 7.221 8.85956 5.19942C8.85956 3.17779 7.22102 1.53835 5.1994 1.53828Z" stroke="white" stroke-opacity="0.5" stroke-width="0.3"/>
</svg>
