<svg width="17" height="17" viewBox="0 0 17 17" fill="none" xmlns="http://www.w3.org/2000/svg">
<path fill-rule="evenodd" clip-rule="evenodd" d="M10.8591 0C11.3895 0 11.8982 0.210714 12.2733 0.585786L16.4142 4.72671C16.7893 5.10179 17 5.61049 17 6.14093V10.8591C17 11.3895 16.7893 11.8982 16.4142 12.2733L12.2733 16.4142C11.8982 16.7893 11.3895 17 10.8591 17H6.14093C5.61049 17 5.10179 16.7893 4.72671 16.4142L0.585786 12.2733C0.210713 11.8982 0 11.3895 0 10.8591V6.14093C0 5.61049 0.210714 5.10179 0.585786 4.72671L4.72671 0.585786C5.10179 0.210713 5.61049 0 6.14093 0H10.8591ZM8.5 11.6875C10.2604 11.6875 11.6875 10.2604 11.6875 8.5C11.6875 6.7396 10.2604 5.3125 8.5 5.3125C6.7396 5.3125 5.3125 6.7396 5.3125 8.5C5.3125 10.2604 6.7396 11.6875 8.5 11.6875Z" fill="#545454"/>
</svg>
