<svg width="14" height="14" viewBox="0 0 14 14" fill="none" xmlns="http://www.w3.org/2000/svg">
<path fill-rule="evenodd" clip-rule="evenodd" d="M0 0.75C0 0.551088 0.0790176 0.360322 0.21967 0.21967C0.360322 0.0790176 0.551088 0 0.75 0H13.25C13.4489 2.96403e-09 13.6397 0.0790176 13.7803 0.21967C13.921 0.360322 14 0.551088 14 0.75C14 0.948912 13.921 1.13968 13.7803 1.28033C13.6397 1.42098 13.4489 1.5 13.25 1.5H0.75C0.551088 1.5 0.360322 1.42098 0.21967 1.28033C0.0790176 1.13968 0 0.948912 0 0.75ZM0.75 3C0.551088 3 0.360322 3.07902 0.21967 3.21967C0.0790176 3.36032 0 3.55109 0 3.75C0 3.94891 0.0790176 4.13968 0.21967 4.28033C0.360322 4.42098 0.551088 4.5 0.75 4.5H10.75C10.9489 4.5 11.1397 4.42098 11.2803 4.28033C11.421 4.13968 11.5 3.94891 11.5 3.75C11.5 3.55109 11.421 3.36032 11.2803 3.21967C11.1397 3.07902 10.9489 3 10.75 3H0.75ZM0 6.75C0 6.55109 0.0790176 6.36032 0.21967 6.21967C0.360322 6.07902 0.551088 6 0.75 6H7.75C7.94891 6 8.13968 6.07902 8.28033 6.21967C8.42098 6.36032 8.5 6.55109 8.5 6.75C8.5 6.94891 8.42098 7.13968 8.28033 7.28033C8.13968 7.42098 7.94891 7.5 7.75 7.5H0.75C0.551088 7.5 0.360322 7.42098 0.21967 7.28033C0.0790176 7.13968 0 6.94891 0 6.75ZM0 9.75C0 9.55109 0.0790176 9.36032 0.21967 9.21967C0.360322 9.07902 0.551088 9 0.75 9H10.75C10.9489 9 11.1397 9.07902 11.2803 9.21967C11.421 9.36032 11.5 9.55109 11.5 9.75C11.5 9.94891 11.421 10.1397 11.2803 10.2803C11.1397 10.421 10.9489 10.5 10.75 10.5H0.75C0.551088 10.5 0.360322 10.421 0.21967 10.2803C0.0790176 10.1397 0 9.94891 0 9.75ZM0.75 12C0.551088 12 0.360322 12.079 0.21967 12.2197C0.0790176 12.3603 0 12.5511 0 12.75C0 12.9489 0.0790176 13.1397 0.21967 13.2803C0.360322 13.421 0.551088 13.5 0.75 13.5H13.25C13.4489 13.5 13.6397 13.421 13.7803 13.2803C13.921 13.1397 14 12.9489 14 12.75C14 12.5511 13.921 12.3603 13.7803 12.2197C13.6397 12.079 13.4489 12 13.25 12H0.75Z" fill="white" fill-opacity="0.25"/>
</svg>
